#!OML:ASF F:\VICON\USERDATA\INSTALL\rory3\rory3.ASF
:FULLY-SPECIFIED
:DEGREES
1
root 3.6101 18.8056 2.65176 -8.80358 -64.0204 17.3531
lowerback 8.93825 -2.57897 1.20884
upperback 3.23527 -3.34214 4.40931
thorax -1.44814 -1.73503 4.22631
lowerneck -5.1854 -11.9984 -9.16316
upperneck 26.0363 -17.9395 5.69617
head 10.5482 -8.75095 1.41855
rclavicle -4.37326e-014 6.36111e-015
rhumerus -9.37277 -6.47062 -72.0445
rradius 32.4076
rwrist 30.9057
rhand -63.787 26.0936
rfingers 7.12502
rthumb -35.7492 -0.284189
lclavicle -4.37326e-014 6.36111e-015
lhumerus -26.2422 -31.6587 101.498
lradius 110.179
lwrist 59.8633
lhand -31.8371 22.4288
lfingers 7.12502
lthumb -5.09146 52.3477
rfemur -18.4327 22.3435 12.2911
rtibia 32.0939
rfoot -19.7853 -8.74775
rtoes 4.13101
lfemur -17.8531 4.15414 -22.8221
ltibia 38.7981
lfoot -11.9021 12.137
ltoes -12.7789
2
root 3.58662 18.7862 2.67321 -8.79393 -64.2391 17.373
lowerback 9.09454 -2.68476 1.26586
upperback 3.29686 -3.47796 4.60439
thorax -1.45185 -1.80765 4.41911
lowerneck -5.22294 -11.9393 -9.50411
upperneck 25.8686 -17.7763 5.69795
head 10.5141 -8.70542 1.4914
rclavicle 4.6118e-014 3.18055e-015
rhumerus -8.9497 -6.59256 -72.0524
rradius 32.232
rwrist 30.9671
rhand -64.8393 24.2185
rfingers 7.12502
rthumb -36.7456 -1.91126
lclavicle 4.6118e-014 3.18055e-015
lhumerus -26.254 -31.5433 101.782
lradius 109.989
lwrist 60.1316
lhand -32.9951 22.1516
lfingers 7.12502
lthumb -6.20945 52.0406
rfemur -18.5358 22.2834 12.3419
rtibia 32.3368
rfoot -19.9221 -8.5949
rtoes 3.80397
lfemur -17.9487 3.1628 -22.6829
ltibia 37.5479
lfoot -12.4626 11.9027
ltoes -9.73305
3
root 3.56018 18.7857 2.69869 -8.38205 -64.5097 16.9635
lowerback 9.2639 -2.89266 1.40823
upperback 3.33943 -3.74163 4.96717
thorax -1.46601 -1.94686 4.75533
lowerneck -5.35094 -11.7696 -9.99221
upperneck 25.7765 -17.4038 5.57799
head 10.5085 -8.58668 1.56576
rclavicle -4.85035e-014 -3.65764e-014
rhumerus -8.37587 -6.5412 -72.0088
rradius 31.9339
rwrist 31.2462
rhand -65.8579 21.01
rfingers 7.12502
rthumb -37.7087 -4.86787
lclavicle -4.85035e-014 -3.65764e-014
lhumerus -26.1787 -30.8167 102.101
lradius 109.785
lwrist 59.9518
lhand -33.152 22.391
lfingers 7.12502
lthumb -6.36097 52.2755
rfemur -18.4813 22.2225 12.5883
rtibia 32.2889
rfoot -19.8803 -8.44211
rtoes 3.21618
lfemur -18.2923 2.47174 -22.4582
ltibia 36.8073
lfoot -12.8607 12.0732
ltoes -9.66737
4
root 3.53688 18.787 2.72388 -8.22047 -64.7154 16.8314
lowerback 9.37553 -2.92067 1.63456
upperback 3.45135 -3.76433 5.02947
thorax -1.41913 -1.96121 4.69873
lowerneck -5.44855 -11.7541 -9.85958
upperneck 25.6196 -17.3703 5.60228
head 10.4545 -8.55337 1.55746
rclavicle -8.0309e-014 4.13472e-014
rhumerus -7.98306 -7.52149 -72.1198
rradius 31.6575
rwrist 31.2165
rhand -65.9375 22.2605
rfingers 7.12502
rthumb -37.7839 -3.59721
lclavicle -8.0309e-014 4.13472e-014
lhumerus -26.0726 -30.8544 102.135
lradius 109.593
lwrist 59.7228
lhand -32.7572 22.704
lfingers 7.12502
lthumb -5.97977 52.5997
rfemur -18.4593 22.1312 12.6709
rtibia 32.2686
rfoot -19.7192 -8.32266
rtoes 1.85657
lfemur -18.6226 1.74627 -22.4029
ltibia 35.9923
lfoot -12.8136 12.435
ltoes -11.6312
5
root 3.51565 18.7838 2.74512 -8.08669 -65.0613 16.7997
lowerback 9.37819 -2.56065 2.11724
upperback 3.62837 -3.25621 4.65259
thorax -1.32146 -1.70084 3.97392
lowerneck -5.40089 -12.0845 -8.58477
upperneck 25.2937 -17.9945 5.68899
head 10.258 -8.72006 1.33288
rclavicle 4.77083e-014 -7.79236e-014
rhumerus -7.94867 -10.1893 -72.4872
rradius 31.3907
rwrist 31.1116
rhand -65.4892 28.4815
rfingers 7.12502
rthumb -37.3603 2.51099
lclavicle 4.77083e-014 -7.79236e-014
lhumerus -26.0184 -32.4168 101.777
lradius 109.414
lwrist 59.777
lhand -32.5021 22.4305
lfingers 7.12502
lthumb -5.73353 52.333
rfemur -18.5222 22.2367 12.6909
rtibia 32.1421
rfoot -19.4892 -8.17842
rtoes 1.12182
lfemur -19.1023 0.942937 -22.2768
ltibia 35.3088
lfoot -13.1909 12.5769
ltoes -10.949
6
root 3.48814 18.7847 2.76227 -7.78895 -65.6185 16.6699
lowerback 9.53076 -2.79461 1.83566
upperback 3.59054 -3.58729 5.22108
thorax -1.37052 -1.87958 4.77424
lowerneck -5.30452 -11.7202 -9.8614
upperneck 25.1646 -17.3262 5.82298
head 10.2776 -8.51808 1.65965
rclavicle -2.70347e-014 -1.74931e-014
rhumerus -7.25548 -9.31004 -72.3034
rradius 31.0156
rwrist 30.5651
rhand -65.3296 32.5484
rfingers 7.12502
rthumb -37.2094 6.53833
lclavicle -2.70347e-014 -1.74931e-014
lhumerus -25.9813 -31.0929 102.219
lradius 109.276
lwrist 59.3722
lhand -32.2495 22.2371
lfingers 7.12502
lthumb -5.48964 52.1459
rfemur -18.6702 22.5383 12.7683
rtibia 31.9968
rfoot -19.3873 -8.04407
rtoes 0.795087
lfemur -19.652 0.332515 -22.0356
ltibia 34.634
lfoot -13.4993 12.7193
ltoes -10.7143
7
root 3.45919 18.7869 2.78059 -7.4388 -66.0984 16.4208
lowerback 9.66122 -2.76608 1.79195
upperback 3.6344 -3.55528 5.52734
thorax -1.37478 -1.87212 5.12593
lowerneck -5.31182 -11.6512 -10.163
upperneck 25.0619 -17.1481 5.7436
head 10.2476 -8.46979 1.70257
rclavicle -4.92986e-014 7.79236e-014
rhumerus -6.89677 -9.13773 -72.0945
rradius 30.7506
rwrist 29.7618
rhand -65.28 34.9285
rfingers 7.12502
rthumb -37.1625 8.90628
lclavicle -4.92986e-014 7.79236e-014
lhumerus -25.9272 -30.9017 102.554
lradius 109.077
lwrist 59.076
lhand -31.8203 21.9959
lfingers 7.12502
lthumb -5.07527 51.9151
rfemur -18.7144 22.8516 12.9082
rtibia 31.8512
rfoot -19.366 -7.96309
rtoes 0.902727
lfemur -20.1169 -0.303386 -21.7783
ltibia 33.9357
lfoot -13.5423 12.9104
ltoes -10.8567
8
root 3.43407 18.7892 2.80495 -7.13174 -66.3954 16.1875
lowerback 9.77 -2.60738 2.02061
upperback 3.7161 -3.32673 5.5482
thorax -1.37793 -1.75891 4.99902
lowerneck -5.30736 -11.7478 -9.56214
upperneck 24.8786 -17.2893 5.5561
head 10.114 -8.50062 1.54081
rclavicle 2.46493e-014 2.22639e-014
rhumerus -6.78219 -10.1341 -72.0356
rradius 30.5586
rwrist 29.5585
rhand -65.9989 34.0155
rfingers 7.12502
rthumb -37.8419 8.17344
lclavicle 2.46493e-014 2.22639e-014
lhumerus -25.9226 -31.5445 102.643
lradius 108.923
lwrist 58.937
lhand -31.3561 21.7358
lfingers 7.12502
lthumb -4.62703 51.6652
rfemur -18.6693 22.9377 13.0163
rtibia 31.6558
rfoot -19.3129 -7.84126
rtoes 0.848622
lfemur -20.5651 -0.972371 -21.5803
ltibia 33.1895
lfoot -13.4074 13.0152
ltoes -10.5962
9
root 3.40669 18.7905 2.83191 -6.94827 -66.7684 16.1633
lowerback 9.7673 -2.36118 2.26865
upperback 3.79596 -2.9841 5.41256
thorax -1.33803 -1.58496 4.67663
lowerneck -5.21707 -11.8938 -8.68537
upperneck 24.6722 -17.5601 5.43389
head 9.94512 -8.56602 1.35307
rclavicle -2.3059e-014 -3.18055e-015
rhumerus -6.66612 -12.204 -72.0979
rradius 30.2678
rwrist 29.7858
rhand -66.0648 33.0928
rfingers 7.12502
rthumb -37.9042 7.26755
lclavicle -2.3059e-014 -3.18055e-015
lhumerus -25.942 -32.4066 102.654
lradius 108.794
lwrist 58.7932
lhand -30.8716 21.6404
lfingers 7.12502
lthumb -4.15917 51.5796
rfemur -18.7141 22.9486 13.0093
rtibia 31.4521
rfoot -19.2734 -7.59741
rtoes 0.62738
lfemur -21.0559 -1.56056 -21.4412
ltibia 32.3961
lfoot -13.2808 12.8967
ltoes -10.1471
10
root 3.37152 18.796 2.87328 -7.52532 -67.2713 16.5983
lowerback 10.031 -2.25528 2.31963
upperback 3.99244 -2.84452 5.40868
thorax -1.28923 -1.52005 4.63707
lowerneck -5.26821 -11.8861 -8.6077
upperneck 24.6472 -17.5486 5.42595
head 9.93599 -8.5522 1.33851
rclavicle -1.51076e-014 3.65764e-014
rhumerus -6.30218 -13.2073 -72.0324
rradius 29.9119
rwrist 29.8838
rhand -65.7009 33.5187
rfingers 7.12502
rthumb -37.5604 7.60121
lclavicle -1.51076e-014 3.65764e-014
lhumerus -25.8209 -32.5712 102.828
lradius 108.676
lwrist 58.4004
lhand -30.4962 21.4353
lfingers 7.12502
lthumb -3.79666 51.3812
rfemur -18.3451 23.0986 12.9112
rtibia 31.2421
rfoot -19.4049 -7.151
rtoes 1.36075
lfemur -21.0337 -2.72583 -21.4914
ltibia 31.5368
lfoot -13.5055 13.3167
ltoes -9.24695
11
root 3.3451 18.8002 2.90045 -7.39393 -67.5385 16.6188
lowerback 10.1592 -2.31564 2.29812
upperback 4.02961 -2.92615 5.58329
thorax -1.30412 -1.56637 4.84867
lowerneck -5.30528 -11.7748 -8.84776
upperneck 24.6664 -17.3777 5.49761
head 9.96661 -8.48554 1.41591
rclavicle 1.43125e-014 6.36111e-015
rhumerus -6.031 -12.3114 -72.0548
rradius 29.5738
rwrist 31.0781
rhand -68.5754 11.2626
rfingers 7.12502
rthumb -40.2706 -13.8812
lclavicle 1.43125e-014 6.36111e-015
lhumerus -25.6544 -32.4421 102.996
lradius 108.576
lwrist 57.9095
lhand -30.0939 21.1968
lfingers 7.12502
lthumb -3.40809 51.1493
rfemur -18.3546 23.1578 12.8528
rtibia 31.0314
rfoot -19.5154 -6.90226
rtoes 2.57593
lfemur -21.4329 -4.16172 -21.3374
ltibia 30.6195
lfoot -13.372 14.0047
ltoes -9.94289
12
root 3.32026 18.8025 2.92141 -7.06601 -67.7494 16.5678
lowerback 10.1273 -2.16192 2.45122
upperback 4.06551 -2.71227 5.49196
thorax -1.27542 -1.45692 4.63933
lowerneck -5.26322 -11.8801 -8.37104
upperneck 24.5818 -17.6435 5.72584
head 9.9252 -8.54625 1.39418
rclavicle 2.22639e-014 -7.79236e-014
rhumerus -5.90753 -13.5837 -72.1704
rradius 29.3132
rwrist 31.4086
rhand -68.5785 11.0258
rfingers 7.12502
rthumb -40.2735 -14.1171
lclavicle 2.22639e-014 -7.79236e-014
lhumerus -25.5533 -33.2876 102.946
lradius 108.527
lwrist 57.5583
lhand -29.5848 21.1636
lfingers 7.12502
lthumb -2.91646 51.1234
rfemur -18.5024 23.1972 12.7812
rtibia 30.8158
rfoot -19.6039 -6.75426
rtoes 3.41653
lfemur -21.9723 -5.30604 -21.1678
ltibia 29.6441
lfoot -13.001 14.4213
ltoes -10.6705
13
root 3.29452 18.8082 2.94171 -6.60073 -67.9839 16.349
lowerback 10.1319 -2.00251 2.63134
upperback 4.09731 -2.48683 5.44157
thorax -1.26871 -1.34242 4.45901
lowerneck -5.22199 -11.9989 -8.02177
upperneck 24.5845 -17.9239 5.94955
head 9.92913 -8.62383 1.38442
rclavicle 3.4191e-014 -6.36111e-015
rhumerus -5.81347 -14.5232 -72.2757
rradius 28.9644
rwrist 32.2239
rhand -69.1485 1.76865
rfingers 7.12502
rthumb -40.8094 -23.208
lclavicle 3.4191e-014 -6.36111e-015
lhumerus -25.4361 -34.153 102.929
lradius 108.478
lwrist 57.2276
lhand -29.3949 20.811
lfingers 7.12502
lthumb -2.73311 50.7732
rfemur -18.6066 23.4154 12.7813
rtibia 30.5892
rfoot -19.6626 -6.7355
rtoes 4.09149
lfemur -22.5066 -6.40163 -20.8558
ltibia 28.6843
lfoot -12.9107 14.5124
ltoes -10.1976
